<svg width="21" height="20" viewBox="0 0 21 20" fill="none" xmlns="http://www.w3.org/2000/svg">
<path d="M15.4541 19C15.4541 16.2386 13.2155 14 10.4541 14C7.69268 14 5.4541 16.2386 5.4541 19M15.4541 19H16.2572C17.3751 19 17.9341 19 18.3615 18.7822C18.7378 18.5905 19.0446 18.2837 19.2363 17.9074C19.4541 17.48 19.4541 16.921 19.4541 15.8031V4.19691C19.4541 3.07899 19.4541 2.5192 19.2363 2.0918C19.0446 1.71547 18.7378 1.40973 18.3615 1.21799C17.9337 1 17.3744 1 16.2543 1H4.6543C3.53419 1 2.97372 1 2.5459 1.21799C2.16957 1.40973 1.86384 1.71547 1.67209 2.0918C1.4541 2.51962 1.4541 3.08009 1.4541 4.2002V15.8002C1.4541 16.9203 1.4541 17.4796 1.67209 17.9074C1.86384 18.2837 2.16957 18.5905 2.5459 18.7822C2.9733 19 3.5331 19 4.65101 19H5.4541M15.4541 19H5.4541M10.4541 11C8.79725 11 7.4541 9.65685 7.4541 8C7.4541 6.34315 8.79725 5 10.4541 5C12.111 5 13.4541 6.34315 13.4541 8C13.4541 9.65685 12.111 11 10.4541 11Z" stroke="#A8CEFA" stroke-width="2" stroke-linecap="round" stroke-linejoin="round"/>
</svg>
