<svg width="133" height="128" viewBox="0 0 133 128" fill="none" xmlns="http://www.w3.org/2000/svg">
<path d="M76.0715 5.53054C75.9755 4.28254 75.1835 2.77054 73.0235 2.77054C70.5515 2.77054 69.4955 4.88254 69.4955 7.18654C69.4955 9.49054 70.5275 11.6025 73.0235 11.6025C75.1835 11.6025 75.9755 10.1145 76.0715 8.74654H78.5915C78.3995 11.5785 76.2155 13.6665 73.0235 13.6665C69.3515 13.6665 66.9755 11.0265 66.9755 7.18654C66.9755 3.34654 69.3515 0.706543 72.9995 0.706543C76.1915 0.706543 78.2795 2.74654 78.5915 5.53054H76.0715Z" fill="#11142A"/>
<path d="M92.8018 19.9832C89.2758 18.4622 88.1934 15.094 89.7048 11.5901C91.2162 8.0862 94.409 6.56215 97.9349 8.08309C101.461 9.60404 102.543 12.9722 101.032 16.4762C99.5205 19.9801 96.3277 21.5041 92.8018 19.9832ZM93.6193 18.088C95.823 19.0386 97.7199 17.7919 98.718 15.478C99.7256 13.1421 99.3212 10.9289 97.1174 9.97829C94.9137 9.0277 93.0263 10.2523 92.0187 12.5882C91.0206 14.9021 91.4155 17.1374 93.6193 18.088Z" fill="#11142A"/>
<path d="M117.83 18.0872L119.576 19.9376L107.094 31.7136L105.348 29.8631L117.83 18.0872Z" fill="#11142A"/>
<path d="M132.083 41.7417L132.953 44.1323L116.827 50.0014L115.957 47.6108L132.083 41.7417Z" fill="#11142A"/>
<path d="M120.099 72.8596C119.978 74.9441 121.223 75.858 121.953 76.1169L121.807 78.6326C119.519 77.8743 117.852 75.9501 118.035 72.8115C118.257 69.0019 121.028 66.8314 124.861 67.0546C128.838 67.2863 131.195 69.7555 130.98 73.4452C130.75 77.3985 127.881 79.1787 123.521 78.9248L124.068 69.5327C122.007 69.4127 120.229 70.6314 120.099 72.8596ZM128.991 73.3294C129.11 71.2928 127.829 69.7518 125.936 69.6415L125.536 76.5179C127.429 76.6281 128.873 75.3659 128.991 73.3294Z" fill="#11142A"/>
<path d="M120.53 100.419L119.399 102.671L109.19 97.5435C106.037 95.9601 105.602 93.3512 107.164 90.2413C108.747 87.0886 111.271 86.1808 113.234 86.8712L112.092 89.1446C111.019 88.8743 109.903 89.2802 109.009 91.0603C108.061 92.9477 108.434 94.3436 110.407 95.3346L111.737 96.0024L111.758 95.9595C111.234 94.9711 110.925 93.5538 111.798 91.8166C113.176 89.0714 116.119 87.9711 119.572 89.7052C123.047 91.4501 123.9 94.4569 122.521 97.2022C121.649 98.9394 120.328 99.5381 119.265 99.7294L119.243 99.7723L120.53 100.419ZM113.427 93.1719C112.511 94.9949 113.163 96.6919 115.479 97.8551C117.796 99.0184 119.546 98.5278 120.462 96.7048C121.452 94.7317 120.479 92.9804 118.441 91.9572C116.425 90.9447 114.418 91.1987 113.427 93.1719Z" fill="#11142A"/>
<path d="M97.5174 108.345C95.9179 109.687 96.1075 111.22 96.4202 111.929L94.4898 113.548C93.4714 111.364 93.7271 108.831 96.1355 106.81C99.0588 104.357 102.539 104.883 105.007 107.825C107.568 110.877 107.389 114.285 104.558 116.661C101.524 119.206 98.2612 118.342 95.4535 114.996L102.66 108.948C101.334 107.367 99.2272 106.91 97.5174 108.345ZM103.278 115.135C104.84 113.824 105.082 111.835 103.864 110.382L98.5872 114.81C99.8059 116.262 101.715 116.446 103.278 115.135Z" fill="#11142A"/>
<path d="M52.5014 121.95C52.4519 123.201 53.063 124.794 55.2084 125.045C57.6636 125.332 58.9577 123.357 59.2252 121.069C59.4926 118.78 58.7128 116.563 56.2337 116.273C54.0883 116.022 53.1289 117.408 52.8747 118.756L50.3718 118.463C50.8913 115.673 53.3029 113.852 56.4733 114.223C60.1205 114.649 62.1739 117.547 61.7281 121.361C61.2823 125.175 58.6159 127.522 54.9926 127.098C51.8222 126.728 49.9851 124.459 49.9984 121.657L52.5014 121.95Z" fill="#11142A"/>
<path d="M29.0475 115.314L26.8651 114.054L32.9971 103.433L35.1795 104.693L34.3875 106.065L34.4291 106.089C35.4703 105.581 37.0519 105.386 38.8809 106.442C40.8554 107.582 41.7543 109.625 40.3503 112.057L36.1143 119.394L33.9111 118.122L37.7871 111.408C38.6151 109.974 38.5404 108.712 37.0439 107.848C35.3603 106.876 33.6915 107.27 32.7795 108.85L29.0475 115.314Z" fill="#11142A"/>
<path d="M12.7992 97.419C10.9361 94.9164 11.5095 91.5872 14.7437 89.1794C17.9778 86.7717 21.3316 87.1772 23.1947 89.6798C24.3413 91.2199 24.3263 92.7271 23.9818 93.7914L24.0104 93.8299L28.5344 90.462L30.0536 92.5026L16.8667 102.32L15.3475 100.279L16.5025 99.4193L16.4739 99.3808C15.3939 99.377 13.9458 98.9591 12.7992 97.419ZM21.8258 91.2974C20.5073 89.5263 18.1879 89.7869 16.2628 91.22C14.3377 92.6532 13.4229 94.8004 14.7414 96.5715C15.9596 98.2078 18.0668 98.2249 20.2614 96.5911C22.4368 94.9716 23.044 92.9337 21.8258 91.2974Z" fill="#11142A"/>
<path d="M3.51361 77.4975C3.67412 78.1747 3.3731 78.986 2.53239 79.1853C1.69168 79.3845 1.08193 78.7891 0.921417 78.1118C0.749838 77.3879 1.03304 76.6055 1.87375 76.4062C2.71446 76.207 3.34203 76.7735 3.51361 77.4975ZM5.80978 78.2358L5.22863 75.7838L17.162 72.9555L17.7432 75.4076L5.80978 78.2358Z" fill="#11142A"/>
<path d="M1.92077 44.137L2.35837 41.6553L19.2577 44.6351L18.8201 47.1168L17.4256 46.8709L17.4172 46.9182C18.132 47.7022 18.8454 49.0465 18.5161 50.9137C17.9702 54.01 15.1551 55.8775 11.1844 55.1773C7.21362 54.4772 5.20707 51.7595 5.75302 48.6632C6.08226 46.796 7.16515 45.7685 8.19945 45.2929L8.20779 45.2456L1.92077 44.137ZM16.5585 50.1299C16.9169 48.0972 15.4597 46.5487 12.7889 46.0777C10.0944 45.6026 8.21909 46.5636 7.86068 48.5962C7.47726 50.7707 9.25842 52.2789 11.622 52.6956C13.9855 53.1124 16.1751 52.3043 16.5585 50.1299Z" fill="#11142A"/>
<path d="M41.348 20.7873C40.6061 21.2753 39.7149 21.1432 39.1874 20.3412C38.6731 19.5592 38.8916 18.6685 39.6335 18.1806C40.3554 17.7058 41.2598 17.8579 41.7741 18.6399C42.3016 19.442 42.0699 20.3125 41.348 20.7873Z" fill="#11142A"/>
</svg>
