<svg width="22" height="20" viewBox="0 0 22 20" fill="none" xmlns="http://www.w3.org/2000/svg">
<path d="M4.21973 17.9371L5.84102 16.64L5.85294 16.6309C6.19094 16.3605 6.3615 16.224 6.5518 16.1268C6.72252 16.0396 6.90457 15.9761 7.09237 15.9375C7.30405 15.8941 7.52454 15.8941 7.96715 15.8941H17.2026C18.3919 15.8941 18.9872 15.8941 19.4419 15.6624C19.8423 15.4584 20.168 15.1326 20.372 14.7322C20.6036 14.2775 20.6036 13.6828 20.6036 12.4935V4.40108C20.6036 3.21177 20.6036 2.61622 20.372 2.16152C20.168 1.76117 19.8416 1.4359 19.4413 1.23191C18.9861 1 18.3911 1 17.1995 1H4.85867C3.66703 1 3.07077 1 2.61562 1.23191C2.21527 1.4359 1.89 1.76117 1.68601 2.16152C1.4541 2.61667 1.4541 3.21293 1.4541 4.40457V16.6082C1.4541 17.7419 1.4541 18.3087 1.68651 18.5998C1.88863 18.853 2.19501 19.0003 2.519 19C2.89154 18.9996 3.33441 18.6453 4.21973 17.9371Z" stroke="#A8CEFA" stroke-width="2" stroke-linecap="round" stroke-linejoin="round"/>
</svg>
