<svg width="22" height="20" viewBox="0 0 22 20" fill="none" xmlns="http://www.w3.org/2000/svg">
<path d="M19.1174 7.0626L18.7678 6.86812C18.7135 6.83792 18.6868 6.82276 18.6606 6.80705C18.3999 6.65089 18.1801 6.43512 18.0198 6.17698C18.0037 6.15101 17.9885 6.12377 17.9574 6.06994C17.9263 6.01617 17.9106 5.98892 17.8961 5.96195C17.7523 5.69339 17.6745 5.39411 17.6698 5.08949C17.6694 5.05886 17.6695 5.02757 17.6705 4.96537L17.6773 4.55939C17.6883 3.90974 17.6938 3.5839 17.6025 3.29148C17.5214 3.03173 17.3857 2.79249 17.2045 2.58946C16.9997 2.35997 16.7163 2.19624 16.1487 1.8692L15.6773 1.59755C15.1114 1.27142 14.8283 1.1083 14.5278 1.04611C14.262 0.991096 13.9877 0.993645 13.7229 1.0531C13.4239 1.12021 13.1444 1.28758 12.5857 1.62213L12.5825 1.62365L12.2447 1.8259C12.1913 1.85788 12.1643 1.874 12.1375 1.88888C11.8719 2.03658 11.5753 2.11826 11.2715 2.12801C11.2409 2.12899 11.2097 2.12899 11.1474 2.12899C11.0856 2.12899 11.0531 2.12899 11.0225 2.12801C10.7181 2.11821 10.4209 2.0361 10.1548 1.88779C10.128 1.87284 10.1015 1.85659 10.048 1.82446L9.70803 1.62039C9.14548 1.28267 8.86379 1.11355 8.5632 1.04611C8.29727 0.986444 8.02201 0.984793 7.75522 1.04052C7.45399 1.10344 7.17085 1.26777 6.60457 1.59643L6.60205 1.59755L6.13651 1.86774L6.13136 1.87089C5.57018 2.1966 5.28891 2.35984 5.08585 2.5884C4.90565 2.79122 4.77096 3.03009 4.69034 3.28914C4.59921 3.58197 4.60407 3.9085 4.61505 4.56122L4.62187 4.96662C4.62291 5.02801 4.6247 5.05852 4.62425 5.08871C4.61973 5.39395 4.5409 5.69385 4.39664 5.96289C4.38237 5.98949 4.367 6.0161 4.3363 6.06925C4.30558 6.12243 4.2907 6.14888 4.27477 6.17455C4.1137 6.43406 3.89297 6.65109 3.63062 6.80752C3.60468 6.82299 3.57733 6.83787 3.52359 6.86765L3.17843 7.05893C2.60415 7.37718 2.31708 7.53644 2.10819 7.76309C1.92339 7.96359 1.7838 8.20141 1.69858 8.46043C1.60226 8.75322 1.60234 9.08153 1.60383 9.7381L1.60505 10.2747C1.60653 10.9269 1.60856 11.2528 1.7051 11.5436C1.79051 11.8009 1.92909 12.0373 2.11285 12.2366C2.32056 12.4618 2.60477 12.6201 3.1747 12.9372L3.51679 13.1275C3.575 13.1599 3.6043 13.1759 3.63238 13.1928C3.89234 13.3493 4.11134 13.5657 4.27105 13.8238C4.2883 13.8516 4.30486 13.8806 4.33798 13.9384C4.37069 13.9956 4.38742 14.0241 4.40255 14.0528C4.54257 14.3179 4.61754 14.6124 4.62265 14.9122C4.6232 14.9446 4.62273 14.9773 4.62162 15.0432L4.61505 15.4322C4.60399 16.0872 4.59918 16.415 4.69084 16.7086C4.77193 16.9684 4.90747 17.2076 5.08864 17.4107C5.29344 17.6402 5.57735 17.8038 6.1449 18.1308L6.61621 18.4024C7.18217 18.7286 7.46505 18.8915 7.76552 18.9537C8.03133 19.0087 8.3058 19.0065 8.57066 18.9471C8.87001 18.8799 9.1505 18.7119 9.71082 18.3764L10.0486 18.1742C10.102 18.1422 10.1291 18.1261 10.1559 18.1113C10.4215 17.9636 10.7178 17.8815 11.0216 17.8717C11.0522 17.8707 11.0833 17.8707 11.1456 17.8707C11.2081 17.8707 11.2392 17.8707 11.2698 17.8717C11.5743 17.8815 11.8724 17.9639 12.1384 18.1122C12.1619 18.1252 12.1853 18.1393 12.2265 18.1641L12.5856 18.3797C13.1482 18.7174 13.4293 18.886 13.7299 18.9535C13.9958 19.0131 14.2713 19.0156 14.5381 18.9599C14.8393 18.897 15.123 18.7323 15.6889 18.4038L16.1615 18.1296C16.723 17.8036 17.0046 17.6402 17.2077 17.4116C17.3879 17.2088 17.5228 16.97 17.6034 16.711C17.6939 16.4203 17.6884 16.0962 17.6776 15.4529L17.6705 15.0334C17.6695 14.972 17.6694 14.9414 17.6698 14.9112C17.6743 14.606 17.7519 14.3059 17.8961 14.0369C17.9104 14.0103 17.9259 13.9835 17.9565 13.9305C17.9872 13.8773 18.0031 13.8508 18.019 13.8252C18.1801 13.5656 18.401 13.3484 18.6634 13.192C18.689 13.1767 18.7154 13.1621 18.7679 13.133L18.7697 13.1322L19.1148 12.9409C19.6891 12.6227 19.9767 12.4632 20.1856 12.2366C20.3704 12.0361 20.5098 11.7986 20.595 11.5396C20.6908 11.2485 20.6901 10.9221 20.6886 10.2732L20.6873 9.72505C20.6859 9.07287 20.6851 8.74704 20.5885 8.45623C20.5031 8.19896 20.3637 7.96253 20.18 7.76323C19.9725 7.53819 19.6879 7.37986 19.119 7.06342L19.1174 7.0626Z" stroke="#A8CEFA" stroke-width="2" stroke-linecap="round" stroke-linejoin="round"/>
<path d="M7.32795 10.0001C7.32795 12.109 9.03758 13.8186 11.1465 13.8186C13.2554 13.8186 14.9651 12.109 14.9651 10.0001C14.9651 7.89113 13.2554 6.1815 11.1465 6.1815C9.03758 6.1815 7.32795 7.89113 7.32795 10.0001Z" stroke="#A8CEFA" stroke-width="2" stroke-linecap="round" stroke-linejoin="round"/>
</svg>
